<svg xmlns="http://www.w3.org/2000/svg" width="100" height="100" viewBox="0 0 100 100" fill="none">
  <rect width="100" height="100" rx="26" fill="#1c1917"></rect>
  <g transform="translate(16 16) scale(0.68)">
    <g fill="none" stroke="#f4c9d4" stroke-width="6" stroke-linejoin="round">
      <path d="M50,50 C38,43 33,27 39,15 C42,8 47,10 50,17 C53,10 58,8 61,15 C67,27 62,43 50,50 Z" transform="rotate(0 50 50)"></path>
      <path d="M50,50 C38,43 33,27 39,15 C42,8 47,10 50,17 C53,10 58,8 61,15 C67,27 62,43 50,50 Z" transform="rotate(72 50 50)"></path>
      <path d="M50,50 C38,43 33,27 39,15 C42,8 47,10 50,17 C53,10 58,8 61,15 C67,27 62,43 50,50 Z" transform="rotate(144 50 50)"></path>
      <path d="M50,50 C38,43 33,27 39,15 C42,8 47,10 50,17 C53,10 58,8 61,15 C67,27 62,43 50,50 Z" transform="rotate(216 50 50)"></path>
      <path d="M50,50 C38,43 33,27 39,15 C42,8 47,10 50,17 C53,10 58,8 61,15 C67,27 62,43 50,50 Z" transform="rotate(288 50 50)"></path>
    </g>
    <g stroke="#f4c9d4" stroke-width="3.3" stroke-linecap="round">
      <line x1="50" y1="50" x2="50" y2="34" transform="rotate(36 50 50)"></line>
      <line x1="50" y1="50" x2="50" y2="34" transform="rotate(108 50 50)"></line>
      <line x1="50" y1="50" x2="50" y2="34" transform="rotate(180 50 50)"></line>
      <line x1="50" y1="50" x2="50" y2="34" transform="rotate(252 50 50)"></line>
      <line x1="50" y1="50" x2="50" y2="34" transform="rotate(324 50 50)"></line>
    </g>
    <g fill="#f4c9d4">
      <circle cx="50" cy="33" r="3" transform="rotate(36 50 50)"></circle>
      <circle cx="50" cy="33" r="3" transform="rotate(108 50 50)"></circle>
      <circle cx="50" cy="33" r="3" transform="rotate(180 50 50)"></circle>
      <circle cx="50" cy="33" r="3" transform="rotate(252 50 50)"></circle>
      <circle cx="50" cy="33" r="3" transform="rotate(324 50 50)"></circle>
      <circle cx="50" cy="50" r="5.4"></circle>
    </g>
  </g>
</svg>